# xmcd
#
# Track frame offsets: 
#        150
#        20920
#        36097
#        59425
#        78910
#        96423
#        107590
#        127042
#        148592
#        164262
#        181050
#        195331
#        215739
#        232140
#
# Disc length: 3366 seconds
#
# Revision: 1
# Processed by: cddbd v1.5.2PL0 Copyright (c) Steve Scherf et al.
# Submitted via: ExactAudioCopyFreeDBPlugin 1.0
#
DISCID=c70d240e
DTITLE=Nancy Martinez - Downtown
DYEAR=2004
DGENRE=Jazz
TTITLE0=Downtown
TTITLE1=The More I See You
TTITLE2=When Sunny Gets Blue
TTITLE3=In A Mellow Tone
TTITLE4=I'm Old Fashioned
TTITLE5=September Song
TTITLE6=Makin' Whoopee
TTITLE7=The Summer Knows
TTITLE8=Honeysuckle Rose
TTITLE9=Breaking Up Is Hard To Do
TTITLE10=Fools Rush In
TTITLE11=I Wish You Love
TTITLE12=Moonlight In Vermont
TTITLE13=Que Reste-T-Il De Nos Amours
EXTD=YEAR: 2000
EXTT0=
EXTT1=
EXTT2=
EXTT3=
EXTT4=
EXTT5=
EXTT6=
EXTT7=
EXTT8=
EXTT9=
EXTT10=
EXTT11=
EXTT12=
EXTT13=
PLAYORDER=
